<?xml version="1.0"?>
<svg width="160" height="160" xmlns="http://www.w3.org/2000/svg" xmlns:svg="http://www.w3.org/2000/svg" xmlns:xlink="http://www.w3.org/1999/xlink">
 <g class="layer">
  <title>Layer 1</title>
  <g id="svg_8">
   <path d="m20.07,46.18c0.46,-2.4 0.72,-4.85 1.41,-7.18c0.97,-3.27 2.06,-6.54 3.43,-9.66c2.33,-5.33 5.87,-9.87 10.06,-13.81c4.87,-4.59 10.42,-8.19 16.71,-10.41c4.15,-1.47 8.42,-2.6 12.87,-2.8c0.22,-0.01 3.53,-0.17 9.09,0.18c4.96,0.32 10.35,1.68 14.86,3.55c2.43,1.01 4.74,2.36 7,3.73c1.55,0.95 2.93,2.19 4.37,3.32c1.05,0.84 2.21,1.6 3.11,2.58c2.21,2.42 4.56,4.77 6.37,7.48c2.26,3.41 4.43,6.92 5.79,10.9c3.35,9.89 2.58,18.73 2.58,19.7c-0.02,5.02 -1.43,9.72 -3.25,14.28c-2.19,5.45 -5.42,10.25 -9.44,14.55c-3.47,3.72 -7.42,6.72 -11.76,9.26c-5.13,3 -10.69,4.8 -16.48,5.77c-2.87,0.48 -5.86,0.78 -8.75,0.57c-4.09,-0.29 -8.17,-0.71 -12.23,-1.8c-6.97,-1.85 -13.13,-5.12 -18.59,-9.69c-3.06,-2.57 -5.82,-5.66 -8.18,-8.93c-2.3,-3.17 -4.17,-6.73 -5.74,-10.34c-1.72,-3.95 -2.96,-11.01 -3.2,-12.82c-0.37,-2.43 -0.25,-3.65 -0.31,-4.79c-0.06,-1.27 0.19,-2.15 0.26,-3.64m32.98,-32.23c-7.03,3.41 -12.01,7.66 -14.96,11.32c-4.31,5.35 -6.49,10.04 -8.51,18.68c-0.39,1.64 -0.94,1.92 0.31,1.93c2.16,0.01 12.23,-0.22 14.58,-0.14c1.1,0.03 -1.34,-13.62 5.47,-25.91m33.86,25.86c8.35,0 16.71,0 25.07,0c-1.05,-11.49 -9.26,-25.54 -23.79,-31.35c0.61,1.32 1.17,2.61 1.78,3.88c2.78,5.81 4,12.08 5.14,18.37c0.05,0.29 -0.6,1.02 -0.94,1.03c-2.23,0.09 -4.47,0.09 -6.7,0.01c-0.36,-0.01 -0.88,-0.48 -1.02,-0.85c-0.31,-0.85 -0.46,-1.76 -0.61,-2.66c-0.92,-5.73 -2.37,-11.28 -5.29,-16.31c-1,-1.74 -2.25,-3.41 -3.7,-4.78c-2,-1.89 -4.96,-2.96 -7.81,-1.24c-2.77,1.66 -4.52,4.15 -5.94,6.91c-2.47,4.81 -4.04,9.94 -4.68,15.33c-0.56,4.68 -1.22,9.36 -1.39,14.06c-0.15,4.2 0.19,8.43 0.55,12.63c0.26,2.98 0.81,5.93 1.38,8.87c0.74,3.82 2.07,7.44 3.69,10.99c1.04,2.25 2.22,4.3 3.82,6.17c2.46,2.87 7.75,3.51 10.97,0.05c2.93,-3.16 4.65,-6.97 6.07,-10.99c1.92,-5.44 2.73,-11.11 3.46,-16.79c0.19,-1.44 0.03,-2.92 0.03,-4.46c-7.3,0 -14.38,0 -21.51,0c0,-2.97 0,-5.86 0,-8.82m-14.97,25.09c-0.28,-1.16 -0.67,-2.31 -0.83,-3.49c-0.58,-4.21 -1.08,-8.42 -1.61,-12.66c-5.29,0 -10.57,0 -15.85,0c1.18,13.83 11.43,26.59 23.93,31.3c-0.64,-1.28 -1.36,-2.4 -1.8,-3.64c-1.34,-3.73 -2.55,-7.51 -3.84,-11.51m39.87,14.09c13.51,-6.41 20.8,-20.06 21.55,-30.25c-5.27,0 -10.55,0 -15.99,0c-0.64,10.97 -2.63,21.55 -8.03,31.56c0.67,-0.36 0.96,-0.53 1.26,-0.69c0.34,-0.17 0.68,-0.33 1.2,-0.63" fill="#18d26e" id="svg_1"/>
   <use fill="#18d26e" id="svg_7" transform="matrix(0.173248 0 0 0.171334 1.95741 12.3212)" x="0" xlink:href="#svg_6" y="23.35"/>
  </g>
 </g>
 <defs>
  <symbol height="902.86" id="svg_6" version="1.1" width="902.86" xml:space="preserve" xmlns="http://www.w3.org/2000/svg">
   <g>
    <title>Layer 1</title>
    <path d="m671.5,577.83l110.49,-432.61l120.87,0l0,-68l-173.69,0l-26.04,101.98l-17.39,68.77l-604.73,-0.56l-11.45,-68.46l-69.56,-0.25l74.75,399.13l596.75,0l0,0zm14.27,-329.78l-67.08,261.78l-487.49,0l-50.41,-262.5l604.98,0.72z" id="svg_5"/>
    <path d="m578.42,825.64c59.96,0 108.74,-48.78 108.74,-108.74s-48.78,-108.75 -108.74,-108.75l-409.7,0c-59.96,0 -108.75,48.79 -108.75,108.75s48.79,108.74 108.75,108.74c59.96,0 108.74,-48.78 108.74,-108.74c0,-14.4 -2.82,-28.16 -7.93,-40.75l208.07,0c-5.1,12.6 -7.93,26.35 -7.93,40.75c0.01,59.96 48.79,108.74 108.75,108.74zm-368.96,-108.74c0,22.46 -18.28,40.74 -40.74,40.74c-22.47,0 -40.75,-18.28 -40.75,-40.74c0,-22.47 18.28,-40.75 40.75,-40.75c22.46,0 40.74,18.28 40.74,40.75zm409.7,0c0,22.46 -18.28,40.74 -40.74,40.74s-40.74,-18.28 -40.74,-40.74c0,-22.47 18.27,-40.75 40.74,-40.75s40.74,18.28 40.74,40.75z" id="svg_4"/>
    <path id="svg_3" opacity="NaN"/>
    <path d="m80.24,242.9c-13,-68 -13,-68 -13.24,-68.9c0.24,0.9 26.24,136.9 13.24,68.9z" id="svg_2" opacity="NaN"/>
   </g>
  </symbol>
 </defs>
</svg>